<svg width="19" height="19" viewBox="0 0 19 19" fill="none" xmlns="http://www.w3.org/2000/svg">
<path fill-rule="evenodd" clip-rule="evenodd" d="M9.50008 0C4.25402 0 0 4.36087 0 9.74051C0 14.0441 2.72206 17.6953 6.49673 18.9833C6.97152 19.0734 7.14582 18.772 7.14582 18.5147C7.14582 18.2824 7.13702 17.5151 7.13293 16.7012C4.49 17.2904 3.9323 15.552 3.9323 15.552C3.50015 14.4261 2.87749 14.1267 2.87749 14.1267C2.01555 13.5222 2.94246 13.5346 2.94246 13.5346C3.89644 13.6031 4.39875 14.5385 4.39875 14.5385C5.24606 16.0275 6.62117 15.597 7.16329 15.3481C7.24855 14.7185 7.49475 14.2887 7.76644 14.0456C5.65634 13.7993 3.43817 12.9641 3.43817 9.23178C3.43817 8.16833 3.80928 7.29942 4.417 6.61728C4.31836 6.37179 3.99319 5.38125 4.50903 4.03957C4.50903 4.03957 5.30679 3.77778 7.12223 5.03801C7.88002 4.82219 8.69273 4.71396 9.50008 4.71025C10.3074 4.71396 11.1208 4.82219 11.88 5.03801C13.6932 3.77778 14.4899 4.03957 14.4899 4.03957C15.007 5.38125 14.6816 6.37179 14.583 6.61728C15.1921 7.29942 15.5607 8.16833 15.5607 9.23178C15.5607 12.9729 13.3383 13.7967 11.2229 14.0378C11.5636 14.3401 11.8672 14.9329 11.8672 15.8416C11.8672 17.1449 11.8562 18.1939 11.8562 18.5147C11.8562 18.7739 12.0272 19.0776 12.5088 18.982C16.2814 17.6925 19 14.0427 19 9.74051C19 4.36087 14.7466 0 9.50008 0Z" fill="black"/>
<circle cx="13" cy="13" r="6" fill="#EAEAEA"/>
<path d="M13.0055 14.0227C13.5673 14.0227 14.0227 13.5673 14.0227 13.0055C14.0227 12.4437 13.5673 11.9883 13.0055 11.9883C12.4437 11.9883 11.9883 12.4437 11.9883 13.0055C11.9883 13.5673 12.4437 14.0227 13.0055 14.0227Z" stroke="#5A65F2" stroke-width="0.9" stroke-linecap="round" stroke-linejoin="round"/>
<path d="M15.5125 14.0205C15.4673 14.1228 15.4539 14.2362 15.4738 14.3462C15.4937 14.4562 15.5462 14.5577 15.6244 14.6376L15.6447 14.658C15.7078 14.721 15.7578 14.7958 15.7919 14.8781C15.826 14.9604 15.8436 15.0487 15.8436 15.1378C15.8436 15.2269 15.826 15.3151 15.7919 15.3975C15.7578 15.4798 15.7078 15.5546 15.6447 15.6176C15.5817 15.6806 15.5069 15.7306 15.4246 15.7648C15.3423 15.7989 15.254 15.8165 15.1649 15.8165C15.0758 15.8165 14.9875 15.7989 14.9052 15.7648C14.8229 15.7306 14.7481 15.6806 14.6851 15.6176L14.6648 15.5972C14.5849 15.5191 14.4834 15.4666 14.3734 15.4467C14.2634 15.4267 14.1499 15.4402 14.0476 15.4853C13.9474 15.5283 13.8618 15.5997 13.8016 15.6907C13.7413 15.7816 13.709 15.8882 13.7086 15.9973V16.055C13.7086 16.2348 13.6371 16.4073 13.5099 16.5345C13.3828 16.6617 13.2103 16.7331 13.0304 16.7331C12.8506 16.7331 12.6781 16.6617 12.5509 16.5345C12.4237 16.4073 12.3523 16.2348 12.3523 16.055V16.0245C12.3496 15.9122 12.3133 15.8034 12.248 15.7121C12.1827 15.6208 12.0914 15.5512 11.9861 15.5125C11.8838 15.4673 11.7703 15.4539 11.6603 15.4738C11.5503 15.4937 11.4488 15.5462 11.3689 15.6244L11.3486 15.6447C11.2856 15.7078 11.2108 15.7578 11.1285 15.7919C11.0462 15.826 10.9579 15.8436 10.8688 15.8436C10.7797 15.8436 10.6914 15.826 10.6091 15.7919C10.5268 15.7578 10.452 15.7078 10.389 15.6447C10.3259 15.5817 10.2759 15.5069 10.2418 15.4246C10.2077 15.3423 10.1901 15.254 10.1901 15.1649C10.1901 15.0758 10.2077 14.9875 10.2418 14.9052C10.2759 14.8229 10.3259 14.7481 10.389 14.6851L10.4093 14.6648C10.4875 14.5849 10.54 14.4834 10.5599 14.3734C10.5798 14.2634 10.5664 14.1499 10.5212 14.0476C10.4783 13.9474 10.4069 13.8618 10.3159 13.8016C10.2249 13.7413 10.1183 13.709 10.0092 13.7086H9.95159C9.77173 13.7086 9.59924 13.6371 9.47206 13.5099C9.34489 13.3828 9.27344 13.2103 9.27344 13.0304C9.27344 12.8506 9.34489 12.6781 9.47206 12.5509C9.59924 12.4237 9.77173 12.3523 9.95159 12.3523H9.98211C10.0943 12.3496 10.2032 12.3133 10.2945 12.248C10.3858 12.1827 10.4554 12.0914 10.4941 11.9861C10.5393 11.8838 10.5527 11.7703 10.5328 11.6603C10.5128 11.5503 10.4604 11.4488 10.3822 11.3689L10.3619 11.3486C10.2988 11.2856 10.2488 11.2108 10.2147 11.1285C10.1805 11.0462 10.163 10.9579 10.163 10.8688C10.163 10.7797 10.1805 10.6914 10.2147 10.6091C10.2488 10.5268 10.2988 10.452 10.3619 10.389C10.4249 10.3259 10.4997 10.2759 10.582 10.2418C10.6643 10.2077 10.7526 10.1901 10.8417 10.1901C10.9308 10.1901 11.019 10.2077 11.1014 10.2418C11.1837 10.2759 11.2585 10.3259 11.3215 10.389L11.3418 10.4093C11.4217 10.4875 11.5232 10.54 11.6332 10.5599C11.7432 10.5798 11.8567 10.5664 11.9589 10.5212H11.9861C12.0863 10.4783 12.1719 10.4069 12.2321 10.3159C12.2924 10.2249 12.3247 10.1183 12.3251 10.0092V9.95159C12.3251 9.77173 12.3966 9.59924 12.5238 9.47206C12.6509 9.34489 12.8234 9.27344 13.0033 9.27344C13.1831 9.27344 13.3556 9.34489 13.4828 9.47206C13.61 9.59924 13.6814 9.77173 13.6814 9.95159V9.98211C13.6819 10.0912 13.7142 10.1978 13.7745 10.2888C13.8347 10.3798 13.9202 10.4511 14.0205 10.4941C14.1228 10.5393 14.2362 10.5527 14.3462 10.5328C14.4562 10.5128 14.5577 10.4604 14.6376 10.3822L14.658 10.3619C14.721 10.2988 14.7958 10.2488 14.8781 10.2147C14.9604 10.1805 15.0487 10.163 15.1378 10.163C15.2269 10.163 15.3151 10.1805 15.3975 10.2147C15.4798 10.2488 15.5546 10.2988 15.6176 10.3619C15.6806 10.4249 15.7306 10.4997 15.7648 10.582C15.7989 10.6643 15.8165 10.7526 15.8165 10.8417C15.8165 10.9308 15.7989 11.019 15.7648 11.1014C15.7306 11.1837 15.6806 11.2585 15.6176 11.3215L15.5972 11.3418C15.5191 11.4217 15.4666 11.5232 15.4467 11.6332C15.4267 11.7432 15.4402 11.8567 15.4853 11.9589V11.9861C15.5283 12.0863 15.5997 12.1719 15.6907 12.2321C15.7816 12.2924 15.8882 12.3247 15.9973 12.3251H16.055C16.2348 12.3251 16.4073 12.3966 16.5345 12.5238C16.6617 12.6509 16.7331 12.8234 16.7331 13.0033C16.7331 13.1831 16.6617 13.3556 16.5345 13.4828C16.4073 13.61 16.2348 13.6814 16.055 13.6814H16.0245C15.9154 13.6819 15.8088 13.7142 15.7178 13.7745C15.6268 13.8347 15.5554 13.9202 15.5125 14.0205V14.0205Z" stroke="#5A65F2" stroke-width="0.9" stroke-linecap="round" stroke-linejoin="round"/>
</svg>